<svg width="35" height="22" viewBox="0 0 35 22" fill="none" xmlns="http://www.w3.org/2000/svg">
<path d="M9.11176 9.57336C8.58181 8.40397 8.30639 7.12063 8.30632 5.82027C8.30632 5.10861 8.40219 4.37734 8.59851 3.58769C8.6864 3.23247 8.79674 2.89277 8.92077 2.56327C8.44481 2.2844 7.92167 2.11292 7.36048 2.11292C5.27934 2.11292 3.59464 4.21688 3.59464 6.8153C3.59464 8.63305 4.42253 10.2062 5.63165 10.9889L0.527705 13.5384C0.209636 13.6988 0 14.0843 0 14.515V18.8381C0 19.4175 0.377041 19.887 0.840828 19.887H3.85754V15.3508C3.85754 14.0291 4.54314 12.8308 5.6073 12.2963L9.51163 10.345C9.3656 10.0957 9.23212 9.83807 9.11176 9.57336Z" fill="#5454C5"/>
<path d="M21.3569 4.79407H34.3277V4.79367L34.33 4.79407C34.7002 4.79407 35 4.47193 35 4.07506V1.44929C35 1.05201 34.6998 0.730271 34.33 0.730271L34.3277 0.73068V0.728638H19.8335C20.4718 1.62989 20.9286 2.66364 21.175 3.76434C21.2568 4.12732 21.3162 4.46662 21.3569 4.79407Z" fill="#5454C5"/>
<path d="M34.9996 17.7112C34.9996 17.314 34.6994 16.9922 34.3296 16.9922L34.3273 16.9926V16.9906H25.8726V20.7016C25.8726 20.8213 25.8665 20.9393 25.8555 21.0556H34.3273V21.0552L34.3296 21.0556C34.6998 21.0556 34.9996 20.7335 34.9996 20.3366V17.7112Z" fill="#5454C5"/>
<path d="M34.3297 8.86101L34.3274 8.86142V8.85938H20.9027C20.8422 9.03045 20.7783 9.20071 20.7071 9.36934C20.5708 9.69235 20.4153 10.0056 20.2415 10.3072L24.1557 12.3111C24.4494 12.4666 24.7167 12.6741 24.9463 12.9248H34.3274V12.9244L34.3297 12.9248C34.6999 12.9248 34.9997 12.6027 34.9997 12.2058V9.58002C34.9997 9.18275 34.6995 8.86101 34.3297 8.86101Z" fill="#5454C5"/>
<path d="M23.33 14.1447L18.9352 11.895L17.0766 10.9437C17.8885 10.3949 18.5475 9.54809 18.979 8.52775C19.3387 7.67735 19.5248 6.75423 19.5249 5.82031C19.5249 5.26992 19.4439 4.74771 19.3301 4.24305C18.7773 1.80019 16.9994 0 14.865 0C12.7709 0 11.02 1.73568 10.4333 4.10954C10.2979 4.6538 10.2043 5.22011 10.2043 5.8199C10.2043 6.86188 10.431 7.83282 10.8165 8.678C11.262 9.65792 11.9221 10.4659 12.7256 10.9853L10.9458 11.8746L6.40839 14.1423C6.01384 14.3403 5.75513 14.8176 5.75513 15.3504V20.7012C5.75513 21.4182 6.22082 22 6.7957 22H22.9339C23.5088 22 23.9745 21.4186 23.9745 20.7012V15.3508C23.9752 14.8196 23.7203 14.3472 23.33 14.1447Z" fill="#5454C5"/>
</svg>
